<svg width="32" height="32" viewBox="0 0 32 32" fill="none" xmlns="http://www.w3.org/2000/svg">
<path d="M16 3.1875C8.92453 3.1875 3.1875 8.92453 3.1875 16C3.1875 23.0755 8.92453 28.8125 16 28.8125C23.0755 28.8125 28.8125 23.0755 28.8125 16C28.8125 8.92453 23.0755 3.1875 16 3.1875Z" fill="#7ADECA"/>
<path d="M9.59375 13.3974C9.59375 12.6393 10.2083 12.0247 10.9665 12.0247C11.7247 12.0247 12.3393 12.6393 12.3393 13.3974C12.3393 14.1556 11.7247 14.7702 10.9665 14.7702C10.2083 14.7702 9.59375 14.1556 9.59375 13.3974ZM19.6607 13.3974C19.6607 12.6393 20.2753 12.0247 21.0335 12.0247C21.7917 12.0247 22.4062 12.6393 22.4062 13.3974C22.4062 14.1556 21.7917 14.7702 21.0335 14.7702C20.2753 14.7702 19.6607 14.1556 19.6607 13.3974ZM16 16.6006C18.4453 16.6006 20.4501 18.5253 20.5759 20.9362C20.5816 21.0678 20.4787 21.1764 20.3471 21.1764H18.9715C18.8513 21.1764 18.7484 21.0849 18.7398 20.9648C18.634 19.5492 17.4443 18.4309 16 18.4309C14.5557 18.4309 13.3689 19.5492 13.2602 20.9648C13.2516 21.0849 13.1486 21.1764 13.0285 21.1764H11.6529C11.5213 21.1764 11.4184 21.0678 11.4241 20.9362C11.5499 18.5253 13.5547 16.6006 16 16.6006Z" fill="#10342D"/>
</svg>
