<svg width="32" height="32" viewBox="0 0 32 32" fill="none" xmlns="http://www.w3.org/2000/svg">
<g filter="url(#filter0_d_203_617)">
<path d="M8.91181 23.596C8.91181 23.1262 9.28737 22.7454 9.75065 22.7454H22.3332C22.7965 22.7454 23.1721 23.1262 23.1721 23.596V29.21C23.1721 29.6798 22.7965 30.0606 22.3332 30.0606H9.75065C9.28737 30.0606 8.91181 29.6798 8.91181 29.21V23.596Z" fill="#394049"/>
<path d="M11.0089 22.7454C11.0089 21.477 12.0229 20.4487 13.2738 20.4487H18.7262C19.9771 20.4487 20.9911 21.477 20.9911 22.7454H11.0089Z" fill="#FFAB09"/>
<path d="M14.8676 16.621H17.1324V20.4487H14.8676V16.621Z" fill="#FFC453"/>
<path fill-rule="evenodd" clip-rule="evenodd" d="M5.05316 5.13772V5.18025C5.05316 8.68011 7.85109 11.5173 11.3025 11.5173H20.6975C24.1489 11.5173 26.9468 8.68011 26.9468 5.18025V5.13772H5.05316ZM4.71762 3.94687C4.25434 3.94687 3.87878 4.3277 3.87878 4.79748V5.18025C3.87878 9.3378 7.2025 12.7082 11.3025 12.7082H20.6975C24.7975 12.7082 28.1212 9.3378 28.1212 5.18025V4.79748C28.1212 4.3277 27.7456 3.94687 27.2824 3.94687H4.71762Z" fill="#FFC657"/>
<path d="M8.74405 1.9054C8.74405 1.43562 9.11961 1.05479 9.58288 1.05479H22.501C22.9643 1.05479 23.3398 1.43562 23.3398 1.9054V9.64596C23.3398 13.733 20.0725 17.0463 16.0419 17.0463C12.0114 17.0463 8.74405 13.733 8.74405 9.64596V1.9054Z" fill="url(#paint0_linear_203_617)"/>
<path d="M19.3134 7.98727C19.3134 9.8429 17.8299 11.3472 16 11.3472C14.1701 11.3472 12.6866 9.8429 12.6866 7.98727C12.6866 6.13164 14.1701 4.62736 16 4.62736C17.8299 4.62736 19.3134 6.13164 19.3134 7.98727Z" fill="white"/>
<path d="M15.8824 6.40123C15.9326 6.2445 16.1513 6.2445 16.2015 6.40123L16.4563 7.19634C16.4787 7.26644 16.5431 7.31389 16.6158 7.31389H17.4403C17.6028 7.31389 17.6704 7.52478 17.5389 7.62165L16.8719 8.11305C16.8131 8.15637 16.7885 8.23316 16.8109 8.30326L17.0657 9.09837C17.1159 9.2551 16.939 9.38544 16.8075 9.28857L16.1405 8.79716C16.0817 8.75384 16.0021 8.75384 15.9433 8.79716L15.2763 9.28857C15.1448 9.38544 14.9679 9.2551 15.0182 9.09837L15.2729 8.30326C15.2954 8.23316 15.2708 8.15637 15.212 8.11305L14.545 7.62165C14.4135 7.52478 14.4811 7.31389 14.6436 7.31389H15.4681C15.5407 7.31389 15.6051 7.26644 15.6276 7.19634L15.8824 6.40123Z" fill="#FFBE41"/>
<path d="M11.9316 26.3605C11.9316 26.1021 12.1382 25.8926 12.393 25.8926H19.6909C19.9457 25.8926 20.1522 26.1021 20.1522 26.3605C20.1522 26.6189 19.9457 26.8283 19.6909 26.8283H12.393C12.1382 26.8283 11.9316 26.6189 11.9316 26.3605Z" fill="white"/>
<path d="M8.07298 1.65022C8.07298 1.27439 8.37342 0.969727 8.74405 0.969727H23.2559C23.6266 0.969727 23.927 1.27439 23.927 1.65022C23.927 2.02604 23.6266 2.3307 23.2559 2.3307H8.74405C8.37342 2.3307 8.07298 2.02604 8.07298 1.65022Z" fill="#FFB846"/>
</g>
<defs>
<filter id="filter0_d_203_617" x="3.87878" y="0.969727" width="24.2424" height="29.5909" filterUnits="userSpaceOnUse" color-interpolation-filters="sRGB">
<feFlood flood-opacity="0" result="BackgroundImageFix"/>
<feColorMatrix in="SourceAlpha" type="matrix" values="0 0 0 0 0 0 0 0 0 0 0 0 0 0 0 0 0 0 127 0" result="hardAlpha"/>
<feOffset dy="0.5"/>
<feComposite in2="hardAlpha" operator="out"/>
<feColorMatrix type="matrix" values="0 0 0 0 0 0 0 0 0 0 0 0 0 0 0 0 0 0 0.2 0"/>
<feBlend mode="normal" in2="BackgroundImageFix" result="effect1_dropShadow_203_617"/>
<feBlend mode="normal" in="SourceGraphic" in2="effect1_dropShadow_203_617" result="shape"/>
</filter>
<linearGradient id="paint0_linear_203_617" x1="5.27203" y1="0.969727" x2="18.0757" y2="29.1164" gradientUnits="userSpaceOnUse">
<stop stop-color="#FFEB34"/>
<stop offset="1" stop-color="#FFAB49"/>
</linearGradient>
</defs>
</svg>
