<svg width="32" height="32" viewBox="0 0 32 32" fill="none" xmlns="http://www.w3.org/2000/svg">
<g filter="url(#filter0_d_206_733)">
<path d="M12 30H4L4 24.2947C4 22.3556 5.50809 20.7837 7.36842 20.7837H8.63158C10.4919 20.7837 12 22.3556 12 24.2947L12 30Z" fill="url(#paint0_linear_206_733)"/>
<path d="M20 30H12V18.0627C12 16.1236 13.5081 14.5517 15.3684 14.5517H16.6316C18.4919 14.5517 20 16.1236 20 18.0627L20 30Z" fill="url(#paint1_linear_206_733)"/>
<path d="M28 30H20V21.837C20 19.8979 21.5081 18.326 23.3684 18.326H24.6316C26.4919 18.326 28 19.8979 28 21.837L28 30Z" fill="url(#paint2_linear_206_733)"/>
<path d="M6.27368 23.3292C6.27368 22.7474 6.72611 22.2759 7.28421 22.2759C7.84231 22.2759 8.29474 22.7474 8.29474 23.3292V27.0157C8.29474 27.5974 7.84231 28.069 7.28421 28.069C6.72611 28.069 6.27368 27.5974 6.27368 27.0157V23.3292Z" fill="url(#paint3_linear_206_733)"/>
<path d="M13.7684 17.536C13.7684 16.9543 14.2208 16.4828 14.7789 16.4828C15.337 16.4828 15.7895 16.9543 15.7895 17.536V27.0157C15.7895 27.5974 15.337 28.069 14.7789 28.069C14.2208 28.069 13.7684 27.5974 13.7684 27.0157V17.536Z" fill="url(#paint4_linear_206_733)"/>
<path d="M22.0211 21.4859C22.0211 20.9042 22.4735 20.4326 23.0316 20.4326C23.5897 20.4326 24.0421 20.9042 24.0421 21.4859V27.0157C24.0421 27.5974 23.5897 28.069 23.0316 28.069C22.4735 28.069 22.0211 27.5974 22.0211 27.0157V21.4859Z" fill="url(#paint5_linear_206_733)"/>
<path d="M20.9263 7.39812C20.9263 7.89937 20.5795 8.28013 20.2743 8.6127C20.0986 8.80067 19.9183 8.99828 19.8489 9.16697C19.7795 9.33566 19.7842 9.58628 19.7795 9.84173C19.7749 10.3092 19.7657 10.8442 19.4096 11.2154C19.0536 11.5865 18.5403 11.5961 18.0918 11.6009C17.8467 11.6058 17.597 11.6106 17.4444 11.6732C17.2918 11.7359 17.093 11.9335 16.9126 12.1167C16.5936 12.4348 16.2283 12.7962 15.7474 12.7962C15.2665 12.7962 14.9012 12.4348 14.5821 12.1167C14.4018 11.9335 14.2122 11.7455 14.0503 11.6732C13.8885 11.6009 13.648 11.6058 13.403 11.6009C12.9544 11.5961 12.4412 11.5865 12.0851 11.2154C11.7291 10.8442 11.7198 10.3092 11.7152 9.84173C11.7106 9.58628 11.7059 9.32602 11.6458 9.16697C11.5857 9.00791 11.3961 8.80067 11.2204 8.6127C10.9152 8.28013 10.5684 7.89937 10.5684 7.39812C10.5684 6.89687 10.9152 6.51611 11.2204 6.18354C11.3961 5.99557 11.5765 5.79796 11.6458 5.62927C11.7152 5.46058 11.7106 5.20995 11.7152 4.95451C11.7198 4.48699 11.7291 3.952 12.0851 3.58088C12.4412 3.20976 12.9544 3.20012 13.403 3.1953C13.648 3.19048 13.8977 3.18566 14.0503 3.123C14.2029 3.06034 14.4018 2.86274 14.5821 2.67958C14.9012 2.36148 15.2665 2 15.7474 2C16.2283 2 16.5936 2.36148 16.9126 2.67958C17.093 2.86274 17.2826 3.05071 17.4444 3.123C17.6062 3.1953 17.8467 3.19048 18.0918 3.1953C18.5403 3.20012 19.0536 3.20976 19.4096 3.58088C19.7657 3.952 19.7749 4.48699 19.7795 4.95451C19.7842 5.20995 19.7888 5.47022 19.8489 5.62927C19.909 5.78832 20.0986 5.99557 20.2743 6.18354C20.5795 6.51611 20.9263 6.89687 20.9263 7.39812Z" fill="url(#paint6_linear_206_733)"/>
<path d="M19.4105 7.39812C19.4105 7.75266 19.1652 8.02198 18.9494 8.25721C18.8251 8.39016 18.6975 8.52994 18.6485 8.64926C18.5994 8.76857 18.6027 8.94585 18.5994 9.12653C18.5961 9.45721 18.5896 9.83562 18.3377 10.0981C18.0859 10.3606 17.7229 10.3674 17.4056 10.3708C17.2323 10.3743 17.0556 10.3777 16.9477 10.422C16.8398 10.4663 16.6991 10.6061 16.5716 10.7356C16.3459 10.9606 16.0875 11.2163 15.7474 11.2163C15.4072 11.2163 15.1488 10.9606 14.9232 10.7356C14.7956 10.6061 14.6615 10.4731 14.547 10.422C14.4326 10.3708 14.2625 10.3743 14.0891 10.3708C13.7719 10.3674 13.4088 10.3606 13.157 10.0981C12.9052 9.83562 12.8986 9.45721 12.8953 9.12653C12.8921 8.94585 12.8888 8.76176 12.8463 8.64926C12.8038 8.53676 12.6697 8.39016 12.5454 8.25721C12.3295 8.02198 12.0842 7.75266 12.0842 7.39812C12.0842 7.04357 12.3295 6.77426 12.5454 6.53903C12.6697 6.40607 12.7972 6.2663 12.8463 6.14698C12.8953 6.02766 12.8921 5.85039 12.8953 5.66971C12.8986 5.33903 12.9052 4.96062 13.157 4.69812C13.4088 4.43562 13.7719 4.4288 14.0891 4.42539C14.2625 4.42198 14.4391 4.41857 14.547 4.37426C14.655 4.32994 14.7956 4.19016 14.9232 4.06062C15.1488 3.83562 15.4072 3.57994 15.7474 3.57994C16.0875 3.57994 16.3459 3.83562 16.5716 4.06062C16.6991 4.19016 16.8332 4.32312 16.9477 4.37426C17.0622 4.42539 17.2323 4.42198 17.4056 4.42539C17.7229 4.4288 18.0859 4.43562 18.3377 4.69812C18.5896 4.96062 18.5961 5.33903 18.5994 5.66971C18.6027 5.85039 18.6059 6.03448 18.6485 6.14698C18.691 6.25948 18.8251 6.40607 18.9494 6.53903C19.1652 6.77426 19.4105 7.04357 19.4105 7.39812Z" fill="#FFEEEE"/>
<path d="M17.1368 7.39812C17.1368 8.19798 16.5148 8.84639 15.7474 8.84639C14.98 8.84639 14.3579 8.19798 14.3579 7.39812C14.3579 6.59826 14.98 5.94984 15.7474 5.94984C16.5148 5.94984 17.1368 6.59826 17.1368 7.39812Z" fill="url(#paint7_linear_206_733)"/>
</g>
<defs>
<filter id="filter0_d_206_733" x="4" y="2" width="24" height="28.5" filterUnits="userSpaceOnUse" color-interpolation-filters="sRGB">
<feFlood flood-opacity="0" result="BackgroundImageFix"/>
<feColorMatrix in="SourceAlpha" type="matrix" values="0 0 0 0 0 0 0 0 0 0 0 0 0 0 0 0 0 0 127 0" result="hardAlpha"/>
<feOffset dy="0.5"/>
<feComposite in2="hardAlpha" operator="out"/>
<feColorMatrix type="matrix" values="0 0 0 0 0 0 0 0 0 0 0 0 0 0 0 0 0 0 0.2 0"/>
<feBlend mode="normal" in2="BackgroundImageFix" result="effect1_dropShadow_206_733"/>
<feBlend mode="normal" in="SourceGraphic" in2="effect1_dropShadow_206_733" result="shape"/>
</filter>
<linearGradient id="paint0_linear_206_733" x1="16" y1="2" x2="16" y2="30" gradientUnits="userSpaceOnUse">
<stop stop-color="#FFB9B9"/>
<stop offset="1" stop-color="#D64444"/>
</linearGradient>
<linearGradient id="paint1_linear_206_733" x1="16" y1="2" x2="16" y2="30" gradientUnits="userSpaceOnUse">
<stop stop-color="#FFB9B9"/>
<stop offset="1" stop-color="#D64444"/>
</linearGradient>
<linearGradient id="paint2_linear_206_733" x1="16" y1="2" x2="16" y2="30" gradientUnits="userSpaceOnUse">
<stop stop-color="#FFB9B9"/>
<stop offset="1" stop-color="#D64444"/>
</linearGradient>
<linearGradient id="paint3_linear_206_733" x1="16" y1="2" x2="16" y2="30" gradientUnits="userSpaceOnUse">
<stop stop-color="#C53F3F"/>
<stop offset="1" stop-color="#FFD698"/>
</linearGradient>
<linearGradient id="paint4_linear_206_733" x1="16" y1="2" x2="16" y2="30" gradientUnits="userSpaceOnUse">
<stop stop-color="#C53F3F"/>
<stop offset="1" stop-color="#FFD698"/>
</linearGradient>
<linearGradient id="paint5_linear_206_733" x1="16" y1="2" x2="16" y2="30" gradientUnits="userSpaceOnUse">
<stop stop-color="#C53F3F"/>
<stop offset="1" stop-color="#FFD698"/>
</linearGradient>
<linearGradient id="paint6_linear_206_733" x1="20.013" y1="4.90909" x2="11.5344" y2="28.2086" gradientUnits="userSpaceOnUse">
<stop stop-color="#E43C17"/>
<stop offset="1" stop-color="#FF24A7"/>
</linearGradient>
<linearGradient id="paint7_linear_206_733" x1="15.7474" y1="5.94984" x2="15.7474" y2="8.84639" gradientUnits="userSpaceOnUse">
<stop stop-color="#FF976A"/>
<stop offset="1" stop-color="#FF1A1A"/>
</linearGradient>
</defs>
</svg>
