<svg width="34" height="34" viewBox="0 0 34 34" fill="none" xmlns="http://www.w3.org/2000/svg">
<g filter="url(#filter0_d_206_750)">
<path fill-rule="evenodd" clip-rule="evenodd" d="M24.741 3.34247C24.747 3.32193 24.75 3.30127 24.75 3.28049C24.75 2.57329 21.2429 2 16.9167 2C12.5904 2 9.08333 2.57329 9.08333 3.28049C9.08333 3.30125 9.08636 3.3219 9.09233 3.34242C9.09272 3.36596 9.09291 3.38955 9.09291 3.41318C9.09291 5.70354 7.28041 7.56025 5.04458 7.56025C5.0218 7.56025 4.99905 7.56006 4.97636 7.55967V12.8551C4.97636 24.2457 14.4042 28.0299 16.2948 28.6669C16.6987 28.8031 17.1346 28.8031 17.5386 28.6669C19.4291 28.0299 28.857 24.2457 28.857 12.8551V7.55967C28.8343 7.56006 28.8115 7.56025 28.7887 7.56025C26.5529 7.56025 24.7404 5.70354 24.7404 3.41318C24.7404 3.38956 24.7406 3.36599 24.741 3.34247Z" fill="url(#paint0_linear_206_750)"/>
<path fill-rule="evenodd" clip-rule="evenodd" d="M23.7591 4.32451C23.7562 4.32208 23.7531 4.31947 23.7496 4.31668C23.692 4.27069 23.5864 4.21142 23.4183 4.14646C23.0858 4.01796 22.5855 3.89578 21.9439 3.7909C20.666 3.58201 18.8885 3.45122 16.9167 3.45122C14.9449 3.45122 13.1673 3.58201 11.8894 3.7909C11.2479 3.89578 10.7475 4.01796 10.415 4.14646C10.247 4.21142 10.1413 4.27069 10.0838 4.31668C10.0802 4.31949 10.0771 4.32212 10.0742 4.32456L10.0744 4.33511C10.0747 4.35862 10.0749 4.38217 10.0749 4.40576C10.0749 6.6016 8.40799 8.3986 6.2997 8.54131V13.0648C6.2997 23.2676 14.7359 26.6635 16.4505 27.2413L16.3463 27.5656C14.6125 26.9814 5.96637 23.511 5.96637 13.0648V8.20846C5.98718 8.20881 6.00803 8.20899 6.02892 8.20899C6.04981 8.20899 6.07066 8.20881 6.09147 8.20846C8.11307 8.17425 9.74159 6.48482 9.74159 4.40576C9.74159 4.38407 9.74142 4.36243 9.74106 4.34083C9.73559 4.32202 9.73282 4.3031 9.73282 4.28407C9.73282 3.63552 12.9491 3.10976 16.9167 3.10976C20.8842 3.10976 24.1005 3.63552 24.1005 4.28407C24.1005 4.30318 24.0977 4.32218 24.0922 4.34106C24.0919 4.36258 24.0917 4.38415 24.0917 4.40576C24.0917 6.48481 25.7202 8.17422 27.7417 8.20846C27.7626 8.20881 27.7834 8.20899 27.8043 8.20899C27.8253 8.20899 27.8461 8.20881 27.867 8.20846V13.0648C27.867 23.511 19.2208 26.9814 17.487 27.5656L17.3828 27.2413C19.0974 26.6635 27.5336 23.2676 27.5336 13.0648V8.54132C25.4253 8.39864 23.7583 6.60162 23.7583 4.40576C23.7583 4.38226 23.7585 4.35879 23.7589 4.33536L23.7591 4.32451ZM17.487 27.5656L17.3828 27.2413C17.08 27.3433 16.7533 27.3433 16.4505 27.2413L16.3463 27.5656C16.7168 27.6905 17.1165 27.6905 17.487 27.5656ZM10.0501 4.34863C10.05 4.34863 10.0506 4.34778 10.0519 4.34608C10.0509 4.34779 10.0502 4.34864 10.0501 4.34863ZM23.7814 4.34608C23.7828 4.34778 23.7833 4.34863 23.7832 4.34863C23.7831 4.34864 23.7825 4.34779 23.7814 4.34608Z" fill="#FFD993"/>
<path fill-rule="evenodd" clip-rule="evenodd" d="M23.2938 5.56987C23.2987 5.5531 23.3011 5.53623 23.3011 5.51926C23.3011 4.94287 20.4427 4.47561 16.9167 4.47561C13.3906 4.47561 10.5322 4.94287 10.5322 5.51926C10.5322 5.53618 10.5347 5.553 10.5395 5.56973C10.5398 5.58891 10.54 5.60814 10.54 5.6274C10.54 7.49414 9.06275 9.00743 7.24046 9.00743C7.22189 9.00743 7.20335 9.00727 7.18486 9.00696V13.323C7.18486 22.6068 14.8689 25.691 16.4098 26.2102C16.739 26.3211 17.0943 26.3211 17.4235 26.2102C18.9644 25.691 26.6485 22.6068 26.6485 13.323V9.00696C26.63 9.00727 26.6114 9.00743 26.5929 9.00743C24.7706 9.00743 23.2933 7.49414 23.2933 5.62741C23.2933 5.60819 23.2935 5.58901 23.2938 5.56987Z" fill="#FFD497"/>
<path d="M16.8079 9.40828C16.8683 9.27868 17.0484 9.27868 17.1088 9.40828L17.8914 11.0885C17.9157 11.1407 17.9641 11.1767 18.0201 11.1842L19.8219 11.4276C19.9609 11.4463 20.0165 11.6218 19.9148 11.7206L18.5967 13.0024C18.5558 13.0422 18.5373 13.1005 18.5476 13.1573L18.8785 14.9879C18.904 15.1291 18.7583 15.2375 18.6351 15.169L17.0378 14.281C16.9883 14.2534 16.9284 14.2534 16.8788 14.281L15.2815 15.169C15.1583 15.2375 15.0126 15.1291 15.0382 14.9879L15.3691 13.1573C15.3793 13.1005 15.3608 13.0422 15.3199 13.0024L14.0018 11.7206C13.9002 11.6218 13.9558 11.4463 14.0948 11.4276L15.8966 11.1842C15.9525 11.1767 16.0009 11.1407 16.0252 11.0885L16.8079 9.40828Z" fill="white"/>
<path d="M3 24.2901C3.31228 23.2385 5.34226 22.0149 6.46996 21.5488L8.46956 25.2223L12.4167 26.2012C11.8302 26.2012 7.36061 28.7376 5.1991 30V26.1188C4.125 25.2622 3 24.2901 3 24.2901Z" fill="#531CB4"/>
<path d="M31 24.2901C30.6877 23.2385 28.6577 22.0149 27.53 21.5488L25.5304 25.2223L21.5833 26.2012C22.1698 26.2012 26.6394 28.7376 28.8009 30V26.1188C29.875 25.2622 31 24.2901 31 24.2901Z" fill="#531CB4"/>
<path d="M10.6138 23.7683L12.4167 26.2012L8.45833 25.2195L10.6138 23.7683Z" fill="#7266F9"/>
<path d="M23.3862 23.7683L21.5833 26.2012L25.5417 25.2195L23.3862 23.7683Z" fill="#7266F9"/>
<path d="M5.66667 20.2354L8.45833 25.2195C16 20.5244 23.5 23.8963 25.5417 25.2195L28.25 20.2354C27.4428 19.2042 24.06 17.1188 16.9865 17.0272C9.91301 16.9355 6.49266 19.1278 5.66667 20.2354Z" fill="url(#paint1_linear_206_750)"/>
</g>
<defs>
<filter id="filter0_d_206_750" x="0" y="0" width="34" height="34" filterUnits="userSpaceOnUse" color-interpolation-filters="sRGB">
<feFlood flood-opacity="0" result="BackgroundImageFix"/>
<feColorMatrix in="SourceAlpha" type="matrix" values="0 0 0 0 0 0 0 0 0 0 0 0 0 0 0 0 0 0 127 0" result="hardAlpha"/>
<feOffset dy="1"/>
<feGaussianBlur stdDeviation="1.5"/>
<feComposite in2="hardAlpha" operator="out"/>
<feColorMatrix type="matrix" values="0 0 0 0 0 0 0 0 0 0 0 0 0 0 0 0 0 0 0.3 0"/>
<feBlend mode="normal" in2="BackgroundImageFix" result="effect1_dropShadow_206_750"/>
<feBlend mode="normal" in="SourceGraphic" in2="effect1_dropShadow_206_750" result="shape"/>
</filter>
<linearGradient id="paint0_linear_206_750" x1="17" y1="2" x2="17" y2="30" gradientUnits="userSpaceOnUse">
<stop stop-color="#F5AE4A"/>
<stop offset="1" stop-color="#FFAB48"/>
</linearGradient>
<linearGradient id="paint1_linear_206_750" x1="6.875" y1="21.7622" x2="27.2084" y2="21.5588" gradientUnits="userSpaceOnUse">
<stop stop-color="#6C2CD6"/>
<stop offset="1" stop-color="#7270FF"/>
</linearGradient>
</defs>
</svg>
