<svg width="32" height="32" viewBox="0 0 32 32" fill="none" xmlns="http://www.w3.org/2000/svg">
<path d="M9.43548 2.74419C9.43548 1.7809 10.2298 1 11.2097 1H20.7903C21.7702 1 22.5645 1.7809 22.5645 2.74419V29.2558C22.5645 30.2191 21.7702 31 20.7903 31H11.2097C10.2298 31 9.43548 30.2191 9.43548 29.2558V2.74419Z" fill="#12BD6B"/>
<path d="M7.92742 5.44767C7.92742 4.48439 8.72175 3.70349 9.70161 3.70349H22.2984C23.2782 3.70349 24.0726 4.48439 24.0726 5.44767V26.5523C24.0726 27.5156 23.2782 28.2965 22.2984 28.2965H9.70161C8.72175 28.2965 7.92742 27.5156 7.92742 26.5523V5.44767Z" fill="#2D3D39"/>
<path d="M27 15.6512C27 21.6235 22.0751 26.4651 16 26.4651C9.92487 26.4651 5 21.6235 5 15.6512C5 9.67878 9.92487 4.83721 16 4.83721C22.0751 4.83721 27 9.67878 27 15.6512Z" fill="url(#paint0_linear_206_737)"/>
<path d="M24.871 15.6512C24.871 20.4676 20.8993 24.3721 16 24.3721C11.1007 24.3721 7.12903 20.4676 7.12903 15.6512C7.12903 10.8347 11.1007 6.93023 16 6.93023C20.8993 6.93023 24.871 10.8347 24.871 15.6512Z" fill="url(#paint1_linear_206_737)"/>
<path d="M17.0232 10.9715C17.0676 10.8086 17.2378 10.712 17.4034 10.7556C17.5691 10.7993 17.6674 10.9666 17.623 11.1295L16.414 15.565C16.3697 15.7278 16.1994 15.8244 16.0338 15.7808C15.8681 15.7372 15.7699 15.5698 15.8142 15.407L17.0232 10.9715Z" fill="#FF9737"/>
<path d="M17.871 18.3043C17.9567 18.4503 17.9058 18.637 17.7573 18.7213C17.6088 18.8056 17.4189 18.7556 17.3332 18.6096L15.623 15.6975C15.5372 15.5515 15.5881 15.3648 15.7366 15.2805C15.8851 15.1962 16.075 15.2463 16.1608 15.3922L17.871 18.3043Z" fill="#12BD6B"/>
<path d="M10.6331 15.7384C10.5596 15.7384 10.5 15.6798 10.5 15.6076C10.5 15.5353 10.5596 15.4767 10.6331 15.4767H15.8669C15.9404 15.4767 16 15.5353 16 15.6076C16 15.6798 15.9404 15.7384 15.8669 15.7384H10.6331Z" fill="white"/>
<path d="M16.8871 15.6076C16.8871 16.1133 16.4701 16.5233 15.9556 16.5233C15.4412 16.5233 15.0242 16.1133 15.0242 15.6076C15.0242 15.1018 15.4412 14.6919 15.9556 14.6919C16.4701 14.6919 16.8871 15.1018 16.8871 15.6076Z" fill="#2D3D39"/>
<path d="M16.4435 15.6076C16.4435 15.8725 16.2251 16.0872 15.9556 16.0872C15.6862 16.0872 15.4677 15.8725 15.4677 15.6076C15.4677 15.3427 15.6862 15.1279 15.9556 15.1279C16.2251 15.1279 16.4435 15.3427 16.4435 15.6076Z" fill="white"/>
<path d="M16.0887 7.5407C15.9417 7.5407 15.8226 7.65783 15.8226 7.80233V8.32558C15.8226 8.47007 15.9417 8.58721 16.0887 8.58721C16.2357 8.58721 16.3548 8.47007 16.3548 8.32558V7.80233C16.3548 7.65783 16.2357 7.5407 16.0887 7.5407Z" fill="#2D3D39"/>
<path d="M16.0887 22.6279C15.9417 22.6279 15.8226 22.745 15.8226 22.8895V23.4128C15.8226 23.5573 15.9417 23.6744 16.0887 23.6744C16.2357 23.6744 16.3548 23.5573 16.3548 23.4128V22.8895C16.3548 22.745 16.2357 22.6279 16.0887 22.6279Z" fill="#2D3D39"/>
<path d="M24.0282 15.3459C24.1752 15.3459 24.2944 15.4631 24.2944 15.6076C24.2944 15.7521 24.1752 15.8692 24.0282 15.8692H23.496C23.349 15.8692 23.2298 15.7521 23.2298 15.6076C23.2298 15.4631 23.349 15.3459 23.496 15.3459H24.0282Z" fill="#2D3D39"/>
<path d="M8.94758 15.6076C8.94758 15.4631 8.82843 15.3459 8.68145 15.3459H8.14919C8.00221 15.3459 7.88306 15.4631 7.88306 15.6076C7.88306 15.7521 8.00221 15.8692 8.14919 15.8692H8.68145C8.82843 15.8692 8.94758 15.7521 8.94758 15.6076Z" fill="#2D3D39"/>
<defs>
<linearGradient id="paint0_linear_206_737" x1="16" y1="1" x2="16" y2="31" gradientUnits="userSpaceOnUse">
<stop stop-color="#8AD085"/>
<stop offset="1" stop-color="#35A377"/>
</linearGradient>
<linearGradient id="paint1_linear_206_737" x1="10.94" y1="1.6" x2="24.224" y2="28.3043" gradientUnits="userSpaceOnUse">
<stop stop-color="#FFF281"/>
<stop offset="1" stop-color="#FFDE68"/>
</linearGradient>
</defs>
</svg>
