<svg width="32" height="32" viewBox="0 0 32 32" fill="none" xmlns="http://www.w3.org/2000/svg">
<g filter="url(#filter0_d_209_475)">
<path d="M16.0897 14.5469C19.6579 14.5469 22.5505 11.6517 22.5505 8.08017C22.5505 4.50867 19.6579 1.6134 16.0897 1.6134C12.5214 1.6134 9.6288 4.50867 9.6288 8.08017C9.6288 11.6517 12.5214 14.5469 16.0897 14.5469Z" fill="url(#paint0_linear_209_475)"/>
<path d="M8.47846 16.5066C6.51869 16.5066 4.92999 18.0967 4.92999 20.0583V26.4763C4.92999 28.4378 6.51869 30.028 8.47846 30.028H27.2493V20.0583C27.2493 18.0967 25.6606 16.5066 23.7009 16.5066H8.47846Z" fill="url(#paint1_linear_209_475)"/>
</g>
<defs>
<filter id="filter0_d_209_475" x="4.92999" y="1.6134" width="22.3193" height="28.9146" filterUnits="userSpaceOnUse" color-interpolation-filters="sRGB">
<feFlood flood-opacity="0" result="BackgroundImageFix"/>
<feColorMatrix in="SourceAlpha" type="matrix" values="0 0 0 0 0 0 0 0 0 0 0 0 0 0 0 0 0 0 127 0" result="hardAlpha"/>
<feOffset dy="0.5"/>
<feComposite in2="hardAlpha" operator="out"/>
<feColorMatrix type="matrix" values="0 0 0 0 0 0 0 0 0 0 0 0 0 0 0 0 0 0 0.2 0"/>
<feBlend mode="normal" in2="BackgroundImageFix" result="effect1_dropShadow_209_475"/>
<feBlend mode="normal" in="SourceGraphic" in2="effect1_dropShadow_209_475" result="shape"/>
</filter>
<linearGradient id="paint0_linear_209_475" x1="16.0897" y1="1.6134" x2="16.0897" y2="30.028" gradientUnits="userSpaceOnUse">
<stop stop-color="#FFDE71"/>
<stop offset="1" stop-color="#FFC427"/>
</linearGradient>
<linearGradient id="paint1_linear_209_475" x1="16.0897" y1="1.6134" x2="16.0897" y2="30.028" gradientUnits="userSpaceOnUse">
<stop stop-color="#FFDE71"/>
<stop offset="1" stop-color="#FFC427"/>
</linearGradient>
</defs>
</svg>
